<?xml version="1.0" standalone="no"?>
<!DOCTYPE svg PUBLIC "-//W3C//DTD SVG 20010904//EN"
 "http://www.w3.org/TR/2001/REC-SVG-20010904/DTD/svg10.dtd">
<svg version="1.0" xmlns="http://www.w3.org/2000/svg"
 width="700.000000pt" height="700.000000pt" viewBox="0 0 700.000000 700.000000"
 preserveAspectRatio="xMidYMid meet">
<metadata>
Created by potrace 1.14, written by Peter Selinger 2001-2017
</metadata>
<g transform="translate(0.000000,700.000000) scale(0.100000,-0.100000)"
fill="#000000" stroke="none">
<path d="M3920 6939 c0 -5 4 -9 8 -9 11 0 191 -182 233 -235 187 -235 289
-502 292 -762 2 -164 -25 -317 -79 -441 -13 -29 -24 -56 -25 -60 0 -4 -18 -42
-39 -84 -70 -140 -157 -256 -290 -390 -75 -74 -140 -149 -158 -181 -61 -109
-93 -206 -96 -300 l-1 -27 -85 -4 c-140 -6 -247 -46 -355 -134 -103 -83 -141
-162 -160 -332 -17 -154 -33 -226 -62 -285 -47 -95 -84 -120 -243 -160 -199
-50 -323 -126 -402 -244 -23 -34 -23 -55 0 -46 32 14 149 43 203 51 67 11 335
11 411 2 31 -4 103 -17 160 -29 134 -29 242 -29 327 0 173 59 292 189 386 421
47 116 76 146 200 204 99 48 110 51 335 96 259 53 341 91 470 220 151 150 249
360 290 615 14 85 22 255 12 255 -4 -1 -27 -28 -52 -62 -81 -108 -193 -212
-279 -257 -67 -35 -230 -101 -249 -101 -3 0 21 16 54 36 127 77 243 185 322
301 156 231 203 514 137 840 -33 162 -88 314 -153 428 -164 283 -478 512 -858
624 -102 30 -254 60 -254 50z"/>
<path d="M6091 5760 c27 -75 51 -163 66 -240 12 -65 11 -329 -2 -400 -47 -260
-144 -468 -322 -694 -120 -151 -177 -195 -387 -297 -216 -104 -311 -183 -367
-305 -26 -57 -56 -155 -66 -219 -3 -16 -7 -32 -9 -34 -2 -2 -32 8 -66 22 -97
40 -169 58 -257 62 -99 4 -182 -14 -270 -60 -240 -126 -349 -384 -286 -676 51
-235 53 -332 11 -484 -22 -82 -54 -140 -108 -194 -50 -51 -146 -105 -208 -118
l-32 -6 25 40 c33 52 57 134 57 196 l0 49 -52 -46 c-118 -103 -254 -135 -398
-92 -60 18 -75 26 -180 94 -114 75 -177 94 -315 94 -138 0 -237 -21 -340 -71
-208 -102 -351 -287 -405 -524 -53 -231 5 -428 175 -592 141 -137 289 -198
480 -199 159 -1 274 20 393 75 50 23 51 31 6 126 -72 150 -222 245 -390 246
-46 0 -64 4 -64 14 0 7 10 14 23 14 111 7 165 3 372 -26 61 -9 128 -18 150
-21 22 -3 47 -8 55 -10 8 -3 40 -10 70 -15 215 -37 351 -27 490 38 169 78 310
273 370 510 9 35 15 43 43 48 56 13 177 64 234 101 102 65 132 107 221 306 89
199 182 262 432 297 41 6 95 13 120 17 170 24 357 134 459 268 82 109 158 311
163 432 1 37 5 41 66 79 308 189 526 514 570 845 16 127 4 401 -22 488 -3 9
-8 33 -11 52 -11 71 -78 265 -124 364 -72 151 -176 299 -296 423 l-105 108 31
-85z"/>
<path d="M1430 5550 c-333 -69 -547 -282 -624 -618 -13 -57 -14 -170 -3 -287
3 -27 -4 -81 -17 -144 -3 -13 -26 -66 -51 -117 -51 -106 -100 -161 -233 -259
-48 -35 -98 -72 -111 -83 l-24 -19 47 -22 c105 -52 261 -18 426 92 61 40 234
176 295 231 28 25 53 46 58 46 4 0 29 -11 56 -25 131 -69 324 -64 476 12 59
30 162 101 189 132 64 71 28 -141 -46 -277 -46 -83 -194 -289 -238 -332 -3 -3
-18 -21 -34 -40 -16 -19 -57 -66 -92 -105 -51 -56 -136 -163 -232 -290 -4 -5
-35 -53 -68 -105 -131 -202 -213 -382 -264 -575 -42 -159 -59 -254 -80 -445
-9 -80 -6 -382 5 -440 24 -135 45 -217 96 -373 65 -195 263 -502 434 -672 98
-97 105 -103 222 -195 43 -34 85 -67 93 -74 19 -15 279 -186 370 -244 226
-143 522 -229 890 -258 119 -10 411 -10 509 0 125 12 342 58 406 85 11 5 66
28 122 51 179 74 352 204 453 340 54 73 104 168 116 220 4 19 9 42 12 50 9 36
10 152 0 187 -49 180 -212 294 -342 239 -33 -14 -116 -82 -116 -95 0 -3 36 -6
81 -6 80 0 81 0 115 -37 32 -35 34 -42 34 -104 0 -52 -5 -73 -22 -97 -34 -49
-68 -75 -123 -96 -93 -35 -145 -32 -145 7 0 28 -55 125 -95 166 -62 64 -123
89 -218 92 -132 5 -261 -56 -322 -152 l-26 -42 -43 24 c-59 33 -151 63 -216
72 -94 12 -269 6 -365 -12 -52 -10 -175 -20 -218 -18 -59 3 -169 47 -274 110
-213 128 -377 306 -470 511 -19 42 -38 83 -42 91 -16 32 -61 210 -75 295 -15
91 -16 368 -1 465 24 169 80 368 141 499 40 86 127 219 181 276 59 62 144 163
206 245 31 41 61 80 65 85 40 51 149 232 194 320 121 243 179 448 180 647 2
189 -27 313 -112 488 -143 296 -433 515 -775 585 -74 16 -271 13 -355 -5z m1
-522 c68 -38 89 -125 46 -189 -96 -143 -311 -20 -234 133 38 74 115 97 188 56z"/>
<path d="M6395 3383 c-45 -135 -165 -365 -246 -473 -104 -138 -178 -198 -339
-277 -208 -101 -359 -209 -415 -295 l-17 -28 -102 6 c-159 10 -268 -21 -374
-105 -125 -99 -212 -258 -256 -466 -11 -51 -14 -112 -11 -225 2 -85 6 -167 8
-181 15 -85 33 -158 64 -269 36 -128 48 -236 32 -292 -12 -45 8 -31 78 52 114
136 181 277 199 420 3 25 7 63 10 85 17 138 93 245 210 295 69 30 117 39 227
41 166 3 284 33 416 105 178 98 354 290 461 503 35 71 106 276 114 335 4 21 8
41 10 45 4 5 11 62 22 161 4 43 4 294 0 335 -2 17 -7 62 -11 100 -4 39 -9 73
-11 76 -2 4 -6 24 -10 45 -3 20 -10 47 -14 60 -5 12 -6 25 -3 28 4 3 2 6 -3 6
-5 0 -23 -39 -39 -87z"/>
<path d="M2522 3080 c-331 -86 -498 -353 -507 -814 -3 -169 0 -174 51 -72 91
181 186 302 297 378 31 21 57 36 57 32 0 -3 6 -1 13 5 27 21 121 49 262 75 37
7 198 8 243 2 68 -10 152 -36 278 -86 135 -54 140 -56 215 -69 112 -19 263 11
336 66 19 14 46 47 61 72 37 62 42 196 11 269 -40 93 -120 151 -212 153 -124
3 -232 -67 -268 -176 -7 -22 -14 -42 -16 -44 -1 -2 -40 19 -85 46 -105 63
-254 126 -360 154 -116 30 -278 34 -376 9z"/>
<path d="M4450 1791 c0 -22 -125 -136 -170 -155 -94 -39 -114 -52 -144 -94
-32 -45 -75 -143 -75 -175 -1 -25 39 -37 138 -41 119 -5 182 14 241 73 91 92
117 210 71 318 -23 51 -61 98 -61 74z"/>
<path d="M5815 1413 c-153 -67 -368 -138 -482 -159 -73 -14 -82 -24 -143 -157
-94 -204 -194 -341 -402 -550 -81 -81 -145 -147 -143 -147 2 0 37 12 77 26
236 85 527 287 799 555 144 142 245 258 316 362 41 60 70 110 60 106 -1 -1
-38 -17 -82 -36z"/>
</g>
</svg>
