<?xml version="1.0" encoding="UTF-8"?>
<svg id="Layer_2" data-name="Layer 2" xmlns="http://www.w3.org/2000/svg" viewBox="0 0 512 512">
  <defs>
    <style>
      .cls-1 {
        fill: #fff;
      }

      .cls-2 {
        fill: #70d3f5;
      }

      .cls-3 {
        fill: #3f86c7;
      }
    </style>
  </defs>
  <path class="cls-3" d="M177.63,275.43s4.73-17.13,34.84-22.71c25.19-4.67,13.96-36.97,24.57-50.08,15.86-19.6,38.88-15.55,38.88-15.55,0,0-3.31-8.52,8.09-27.06,4.38-7.13,13.01-11.33,21.77-23.64C360.86,59.03,285.87,3.9,285.87,3.9c0,0,69.89,7.25,89.27,65.63,25.82,77.76-35.77,102.33-35.77,102.33,0,0,18.08-5.12,26.44-11.51,8.55-6.53,18.66-20.68,18.66-20.68,0,0,3.73,51.17-34.53,74.02-9.25,5.53-31.66,7.08-41.68,11.05-18.82,7.46-17.91,12.75-20.53,19.28-14.15,35.3-41.71,30.92-46.03,29.86-40.16-9.87-64.07,1.56-64.07,1.56Z"/>
  <path class="cls-3" d="M346.22,457.86s2.73-9.89-.78-20.37c-15.55-46.5-1.62-74.86,12.44-86.7,15.24-12.83,35.46-7.23,35.46-7.23,0,0,3.58-11.97,34.53-25.43,28.62-12.44,42.46-60.89,42.46-60.89,0,0,17.5,58.79-15.86,103.11-24.87,33.04-55.29,29.39-55.29,29.39,0,0-30.56-2.49-31.96,27.99-1.03,22.47-20.99,40.12-20.99,40.12Z"/>
  <path class="cls-3" d="M203.68,401.4s27.76-4.43,35.69,25.66c0,0-36.24,19.75-65.16-5.44-31.38-27.33-7.78-63.14-7.78-63.14,0,0,12.44-22.24,37.64-25.19,28.66-3.36,29.01,6.5,42.92,12.13,22.47,9.1,36.08-9.64,36.08-9.64,0,0,.86,6.26-1.24,12.56-.79,2.38-4.67,8.9-4.67,8.9,0,0,18.43-2.47,24.49-20.1,5.02-14.58,2.95-26.97,.7-35.57-9.33-35.77,15.64-56.05,35.92-57.08,14.57-.74,27.84,7,27.84,7,0,0,2.49-17.5,8.67-25.04,14.35-17.5,31.76-15.55,45.76-30.95,52.41-57.65,22.24-110.88,22.24-110.88,0,0,38.94,28.16,41.99,87.71,2.95,57.7-47.12,81.65-47.12,81.65,0,0,.31,46.66-47.12,54.59-7.82,1.31-22.08,1.4-30.33,9.33s-10.91,21.66-15.86,27.99c-9.49,12.13-28.51,15.63-28.51,15.63,0,0-7.95,53.11-59.82,43.62-62.05-11.35-52.33-3.73-52.33-3.73Z"/>
  <path class="cls-3" d="M147.7,358.48c14.07-31.03,25.7-37.84,43.31-41.68,34.21-7.46,45.26,10.53,64.7,10.58,33.36,.08,27.77-26.75,23.88-32.98-7.33-11.75-20.62-9.9-27.96-4.26-6.19,4.75-7.11,12.67-7.11,12.67,0,0-48.06-36.24-81.49-4.04-20.08,19.34-15.32,59.72-15.32,59.72Z"/>
  <path class="cls-2" d="M116.67,451.32c-3.74-6.38-5.7-14.65-6.32-17.58,1.1,4.45,7.64,21.72,44.11,32.98,21.93,6.77,36.27-.73,51.32-7.46,38.57-17.26,62.52,27.99,62.52,27.99,0,0-1.24-25.63-15.86-36.86-1.09-.84-2.2-1.52-3.31-2.23h.1s7.63-16.48,28.72-14.1c16.48,1.87,20.68,21.46,20.68,21.46,0,0,20.26-.64,20.53-15.71,.29-16.33-17.73-10.26-17.73-10.26,0,0,11.12-18.04,26.83-3.34,24.49,22.92-6.45,81.1-88.1,81.88-62.52,.6-87.56-19.44-87.56-19.44l-16.8-13.06c-6.33-6.21-14.47-16.31-19.13-24.26Z"/>
  <path class="cls-3" d="M326.19,380.28s-7.29,11.1-15.7,13.16c-11.31,2.77-13.74,20.09-13.74,20.09,0,0,18.47,5.77,27.82-3.46,15.22-15.03,1.62-29.78,1.62-29.78Z"/>
  <path class="cls-3" d="M431.6,406.07c-3.27,10.5-50.39,65.78-93,76.98,48.44-42.69,38.93-60.53,49.14-62.29,19.01-3.27,43.86-14.7,43.86-14.7Z"/>
  <path class="cls-2" d="M212.94,297.83c-26.73-12.25-60.83,18.57-60.83,18.57h0c2.38-6.56,5.86-12.77,10.91-17.64,33.44-32.19,81.49,4.04,81.49,4.04l12.66,8.26s-12.66,1.23-44.23-13.24Z"/>
  <path class="cls-3" d="M50.73,197.36c-4.18,7.09-23.64,19.75-23.64,19.75,0,0,5.78,8.41,24.57,1.09,11.97-4.67,35.61-26.28,35.61-26.28,0,0,10.63,8.62,28.46,5.13,14.31-2.8,26.13-14.93,26.13-14.93,0,0,4.2,9.95-12.13,32.66-8.66,12.04-19.13,23.33-19.13,23.33,0,0-32.01,34.03-41.52,69.98-14.7,55.52-1.4,84.45-1.4,84.45,0,0,1.93,17.65,24.96,48.06,18.2,24.03,59.95,48.06,59.95,48.06,0,0-24.26-17.42-35.92-37.32-3.74-6.38-5.7-14.65-6.32-17.58,1.1,4.45,7.64,21.72,44.11,32.98,21.93,6.77,36.27-.73,51.32-7.46,38.57-17.26,62.52,27.99,62.52,27.99,0,0-1.24-25.63-15.86-36.86-26.13-20.06-56.74-2.47-70.29-7.93-82.27-33.13-61.51-133.44-35.61-161.43,16.46-17.79,41.58-48.5,47.9-84.29,9.8-55.52-41.29-100.91-90.36-90.67-42.46,8.86-46.8,48.04-46.19,56.76,.59,8.44,4.04,15.55-7.15,34.53Zm38.88-44.63c0-5.58,4.53-10.11,10.11-10.11,5.58,0,10.11,4.53,10.11,10.11s-4.53,10.11-10.11,10.11c-5.58,0-10.11-4.53-10.11-10.11Z"/>
  <path class="cls-2" d="M258.81,362.99s-15.86,1.4-40.9-10.11c-25.02-11.5-54.75,11.86-54.79,11.89,1.77-3.94,3.32-6.29,3.32-6.29,0,0,12.44-22.24,37.64-25.19,28.66-3.36,29.01,6.5,42.92,12.13,0,0,7,14.77,11.82,17.57Z"/>
  <path class="cls-1" d="M388.67,272.01s-29.27-2.47-47.74,13.42c-16.95,14.57-17.88,44.12-17.88,44.12,0,0-11.51-40.12,6.84-57.59,29.3-27.88,58.79,.05,58.79,.05Z"/>
  <path class="cls-2" d="M427.16,338.65s-2.57,19.36-28.34,19.36c-25.75,0-48.7-2.98-60.03,35.81,1.29-21.29,10.15-35.52,19.09-43.05,15.24-12.83,35.46-7.23,35.46-7.23,0,0,24.26,10.15,33.83-4.9Z"/>
  <path class="cls-2" d="M275.92,187.1s21.15,4.35,28.93,13.06c0,0-48.52-9.18-54.12,32.97,0,0-9.51-25.18,2-42.59,12.1-5.37,23.2-3.44,23.2-3.44Z"/>
  <path class="cls-2" d="M228.42,271.26c29.6,.83,46.73-15.11,51.39-23.51,4.67-8.4,11.21-11.75,11.21-11.75h0c-1.67,2.62-2.15,5.2-3.28,8.02-14.15,35.3-41.71,30.92-46.03,29.86-4.64-1.14-9.04-1.97-13.24-2.59l-.05-.03Z"/>
</svg>