<svg id="Layer_1" data-name="Layer 1" xmlns="http://www.w3.org/2000/svg" viewBox="0 0 792 612"><defs><style>.cls-1{fill:#3f86c7;}.cls-2{font-size:115.48px;fill:#231f20;font-family:Poppins-Regular, Poppins;}</style></defs><path class="cls-1" d="M66.52,378.69S243,463.71,243,253.62C243,253.62,66.52,223.39,66.52,378.69Zm22.21,1.18s108.82-13.22,142.83-102.4C231.56,277.47,226.65,386.67,88.73,379.87Z"/><path class="cls-1" d="M122.8,240.61c23.07,12.85,36.34,5,36.34,5,28.35-15.51,69.88-1,69.88-1C165.06,183.34,122.8,240.61,122.8,240.61Zm33.8-3a6.62,6.62,0,1,1,0-9.37A6.61,6.61,0,0,1,156.6,237.57Z"/><text class="cls-2" transform="translate(259.77 334.29)">abiwara</text></svg>